<svg width="1725" height="222" viewBox="0 0 1725 222" fill="none" xmlns="http://www.w3.org/2000/svg">
<mask id="mask0_102_33" style="mask-type:luminance" maskUnits="userSpaceOnUse" x="9" y="39" width="827" height="152">
<path d="M9.8457 39.8461H835.154V190.692H9.8457V39.8461Z" fill="white"/>
</mask>
<g mask="url(#mask0_102_33)">
<path d="M206.383 103.6C206.383 93.3538 203.879 86.0108 198.927 81.5708C193.918 77.1308 185.779 74.9677 174.281 74.9677C162.841 74.9677 152.197 77.7 142.18 83.1646L142.066 88.3446C142.066 94.3784 142.977 99.2738 144.798 103.088H160.564C161.589 100.583 162.272 96.9969 162.442 92.5C164.605 91.8738 167.337 91.4754 170.639 91.4754C179.518 91.4754 183.9 95.7446 183.9 104.226V112.138H166.427C157.035 112.138 149.921 114.245 145.196 118.4C142.811 120.572 140.937 123.245 139.706 126.227C138.476 129.209 137.922 132.426 138.082 135.648C138.082 142.877 140.586 148.74 145.709 152.895C150.83 157.246 157.375 159.556 164.093 159.385C176.16 159.385 184.527 155.969 189.137 149.138C189.877 153.123 190.788 156.538 191.869 159.385C202 159.385 209.798 158.018 215.205 155.457V141.283C212.415 139.981 209.469 139.043 206.44 138.494V103.6H206.383ZM183.9 137.64C180.713 140.942 176.33 142.592 170.923 142.592C167.736 142.592 165.231 141.682 163.695 139.917C161.987 138.209 161.133 135.932 161.133 133.2C161.133 127.223 164.947 124.263 172.688 124.263H183.9V137.64ZM271.269 74.9677C262.999 75.0124 254.96 77.7055 248.331 82.6523V74.6831C244.447 74.4312 240.555 74.3173 236.663 74.3415C231.939 74.3415 226.646 74.9677 220.726 76.2769L219.133 88.9138C221.295 91.3046 224.198 93.1831 227.955 94.4354V172.534C223.401 174.242 220.556 176.12 219.133 178.055L220.783 190.692H260.967L262.561 178.055C260.74 175.778 256.698 173.786 250.38 172.022V157.962C254.365 158.815 258.52 159.328 262.902 159.328C273.148 159.328 281.913 156.026 289.255 149.48C293.362 145.739 296.489 141.048 298.362 135.818C300.639 129.898 301.777 123.068 301.777 115.383C301.777 100.925 299.387 90.5646 294.549 84.4169C289.711 78.0984 281.97 74.9677 271.269 74.9677ZM274.001 135.306C272.73 137.544 270.882 139.401 268.65 140.682C266.417 141.963 263.882 142.623 261.309 142.592C257.623 142.598 253.951 142.139 250.38 141.226V97.9077C255.107 94.4153 260.905 92.6838 266.773 93.0123C271.269 93.0123 274.343 94.5492 276.107 97.7369C277.815 100.982 278.669 106.845 278.669 115.269C278.988 122.269 277.373 129.221 274.001 135.363V135.306ZM360.346 74.9677C352.095 75.0245 344.078 77.717 337.465 82.6523V74.6831C333.562 74.4298 329.651 74.3159 325.74 74.3415C321.015 74.3415 315.722 74.9677 309.86 76.2769L308.266 88.9138C310.372 91.3046 313.275 93.1831 317.031 94.4354V172.534C312.535 174.242 309.632 176.12 308.266 178.055L309.86 190.692H350.044L351.637 178.055C349.816 175.778 345.775 173.786 339.514 172.022V157.962C343.498 158.815 347.596 159.328 352.036 159.328C362.224 159.328 370.989 156.026 378.332 149.48C382.459 145.745 385.606 141.054 387.495 135.818C389.715 129.898 390.911 123.068 390.911 115.383C390.911 100.925 388.52 90.5646 383.682 84.4169C378.787 78.0984 371.046 74.9677 360.346 74.9677ZM363.135 135.306C361.863 137.544 360.015 139.401 357.783 140.682C355.551 141.963 353.016 142.623 350.442 142.592C346.756 142.598 343.085 142.139 339.514 141.226V97.9077C344.225 94.428 350.001 92.6972 355.849 93.0123C360.403 93.0123 363.419 94.5492 365.184 97.7369C366.891 100.982 367.802 106.845 367.802 115.269C367.802 123.808 366.151 130.525 363.135 135.363V135.306ZM436.729 141.34C433.03 141.34 430.753 140.543 429.842 139.006C428.681 136.64 428.17 134.007 428.362 131.378V89.9384H451.3V76.2769H428.362V55.6138H416.694C411.856 58.8015 408.84 64.7784 407.531 73.7723C403.58 74.9808 399.972 77.1069 397.001 79.9769L398.708 89.9384H405.937V135.818C405.937 142.991 407.474 148.512 410.49 152.269C413.564 155.969 419.369 157.848 428.021 157.848C436.616 157.848 445.039 155.742 453.236 151.472L448.398 138.665C444.713 140.279 440.751 141.168 436.729 141.283V141.34ZM548.174 76.2769L546.695 88.8C548.288 91.02 551.476 92.9554 556.314 94.72L555.289 99.3308L547.321 136.388H545.044L541.06 118.286L530.302 76.6184H512.43L501.502 118.571C499.952 124.474 498.548 130.415 497.29 136.388H495.07L485.736 94.72C490.289 93.1261 493.647 91.1908 495.525 88.8L493.932 76.2769H456.366L454.829 88.9138C456.48 91.1908 459.667 93.1831 464.278 94.8338L484.426 158.986H507.194L514.764 132.972C516.927 125.914 518.52 118.115 519.602 109.634H521.821L522.277 113.505C523.244 121.36 524.554 127.906 526.261 133.143L534.4 158.929H555.289L575.324 95.0615C579.234 94.0326 582.745 91.8508 585.399 88.8L583.862 76.2769H548.231H548.174ZM658.538 110.545C658.538 97.1677 655.863 87.8892 650.57 82.6523C645.333 77.5292 637.706 74.9108 627.802 74.9108C617.842 74.9108 609.133 77.9277 601.62 84.0184C597.479 87.6492 594.326 92.2713 592.456 97.4523C590.067 104.133 588.91 111.192 589.041 118.286C589.041 131.606 592.286 141.682 598.774 148.626C605.263 155.628 614.939 159.1 627.802 159.1C633.55 159.191 639.264 158.207 644.65 156.197C649.602 154.318 652.732 152.782 653.985 151.643L656.83 148.74L651.992 135.648L649.716 136.957C644.217 139.562 638.212 140.923 632.128 140.942C625.526 140.942 620.745 139.518 617.671 136.672C614.597 133.826 612.833 128.931 612.492 122.1H647.211C654.725 122.328 658.595 118.4 658.595 110.545H658.538ZM637.82 107.812L612.548 108.837C613.345 102.575 614.768 98.2492 617.102 95.6307C619.265 92.9554 622.566 91.7031 626.778 91.7031C630.99 91.7031 633.95 92.9554 635.6 95.3461C637.308 97.7938 638.218 100.128 638.218 102.291C638.161 104.397 638.048 106.275 637.82 107.812ZM734.182 103.6C734.182 93.3538 731.677 86.0108 726.726 81.5708C721.717 77.1308 713.578 74.9677 702.08 74.9677C690.697 74.9677 679.996 77.7 670.035 83.1646L669.865 88.3446C669.865 94.3784 670.775 99.2738 672.597 103.088H688.363C689.444 100.583 690.071 96.9969 690.241 92.5C692.404 91.8738 695.136 91.4754 698.437 91.4754C707.317 91.4754 711.756 95.7446 711.756 104.226V112.138H694.225C684.834 112.138 677.719 114.245 672.995 118.4C670.61 120.572 668.735 123.245 667.505 126.227C666.275 129.209 665.72 132.426 665.88 135.648C665.88 142.877 668.385 148.74 673.507 152.895C678.637 157.225 685.182 159.515 691.892 159.328C703.958 159.328 712.268 155.912 716.879 149.082C717.619 153.066 718.586 156.482 719.611 159.328C729.742 159.328 737.54 157.962 742.947 155.4V141.226C740.157 139.924 737.211 138.986 734.182 138.437V103.543V103.6ZM711.756 137.64C708.512 140.942 704.186 142.592 698.722 142.592C695.535 142.592 693.087 141.682 691.493 139.917C689.786 138.209 689.046 135.932 689.046 133.2C689.046 127.223 692.859 124.263 700.6 124.263H711.756V137.64ZM821.152 138.323L803.052 113.96L818.42 95.9723C824.909 94.2646 829.348 91.8738 831.739 88.8569L830.202 76.3338H794.913L793.376 88.8569C794.116 90.0523 795.425 91.2477 797.19 92.3292L779.545 115.668L807.89 157.962H833.503L835.154 145.382C832.479 142.194 827.812 139.86 821.152 138.38V138.323Z" fill="#EEEEF0"/>
<path d="M778.065 139.86V40.3015C774.536 40.0169 770.211 39.8461 765.088 39.8461C759.965 39.8461 754.387 40.5292 748.411 41.9523L746.817 54.4754C748.98 56.9231 751.883 58.7446 755.583 59.9969V139.746C751.257 141.397 748.297 143.275 746.817 145.268L748.411 157.905H785.237L786.831 145.268C785.123 143.275 782.277 141.454 778.065 139.86Z" fill="#EEEEF0"/>
<path d="M45.7608 102.405C45.567 102.166 45.3247 101.972 45.0499 101.834C44.7751 101.697 44.4741 101.62 44.1671 101.608C43.598 101.608 42.915 101.892 42.5734 102.405L9.8457 141.966V154.091L44.0533 114.245L68.0726 142.877C68.3026 143.162 68.5964 143.388 68.9302 143.539C69.264 143.689 69.6284 143.759 69.9941 143.742C70.3598 143.725 70.7164 143.623 71.0352 143.443C71.354 143.263 71.626 143.011 71.8292 142.706L108.257 92.1584V77.7569L69.7802 130.923L45.7039 102.462L45.7608 102.405Z" fill="white"/>
<path d="M71.8292 142.706C71.6173 142.998 71.3448 143.241 71.0305 143.418C70.7161 143.594 70.3673 143.701 70.0078 143.731C69.6419 143.742 69.2782 143.671 68.9432 143.524C68.6083 143.376 68.3108 143.155 68.0726 142.877L44.0533 114.302L9.8457 154.091V154.945C9.8457 160.808 14.3991 165.475 20.1478 165.475H97.9545C103.646 165.475 108.257 160.808 108.257 154.945V92.1584L71.8292 142.706Z" fill="#C82C46"/>
<path d="M108.314 75.0246C108.168 72.3715 107.015 69.8741 105.089 68.0435C103.164 66.2129 100.611 65.1874 97.9545 65.1769H20.1478C14.456 65.1769 9.8457 69.8446 9.8457 75.6507V141.966L42.5734 102.461C42.7673 102.223 43.0096 102.029 43.2844 101.891C43.5592 101.754 43.8601 101.677 44.1671 101.665C44.7363 101.665 45.3624 102.006 45.7608 102.461L69.7802 131.037L108.257 77.9276V75.7646C108.37 75.423 108.257 75.1953 108.257 75.0246H108.314Z" fill="#C82C46"/>
</g>
<path d="M891.36 146.5V140.164C893.216 139.716 895.072 138.692 896.928 137.092C898.784 135.428 900.896 133.028 903.264 129.892L914.4 115.012C911.84 111.748 909.28 108.484 906.72 105.22C904.16 101.956 901.568 98.692 898.944 95.428C897.92 94.084 896.992 92.612 896.16 91.012C895.328 89.348 894.656 87.812 894.144 86.404C893.12 86.468 892.224 86.532 891.456 86.596C890.752 86.596 890.048 86.628 889.344 86.692V79.3H918.528V85.636H917.568C915.584 85.636 914.208 85.924 913.44 86.5C912.672 87.076 912.384 87.876 912.576 88.9C912.832 89.86 913.44 90.948 914.4 92.164C915.872 93.956 917.312 95.748 918.72 97.54C920.128 99.332 921.536 101.156 922.944 103.012L930.24 92.932C931.584 91.076 932.64 89.732 933.408 88.9C934.24 88.004 935.072 87.172 935.904 86.404C934.88 86.468 933.6 86.532 932.064 86.596C930.528 86.596 929.408 86.628 928.704 86.692V79.3H950.496V85.636C949.024 85.828 947.552 86.34 946.08 87.172C944.672 88.004 943.232 89.188 941.76 90.724C940.288 92.196 938.688 94.116 936.96 96.484L927.744 109.06C929.792 111.62 931.808 114.18 933.792 116.74C935.776 119.3 937.76 121.86 939.744 124.42C941.792 126.98 943.808 129.54 945.792 132.1C946.88 133.444 947.872 134.724 948.768 135.94C949.664 137.156 950.336 138.308 950.784 139.396C951.872 139.268 952.64 139.204 953.088 139.204C953.536 139.14 954.08 139.108 954.72 139.108V146.5H926.016V140.164C928.384 140.164 929.92 139.876 930.624 139.3C931.328 138.724 931.488 137.956 931.104 136.996C930.784 135.972 930.144 134.852 929.184 133.636C927.584 131.588 925.952 129.54 924.288 127.492C922.688 125.38 921.056 123.3 919.392 121.252C917.984 123.172 916.576 125.124 915.168 127.108C913.76 129.028 912.352 130.948 910.944 132.868C909.6 134.66 908.576 136.004 907.872 136.9C907.168 137.796 906.432 138.628 905.664 139.396C906.752 139.332 908 139.268 909.408 139.204C910.816 139.14 911.84 139.108 912.48 139.108V146.5H891.36Z" fill="#EEEEF0"/>
<path d="M1112.77 4C1053.81 4 1006 51.9064 1006 111.001C1006 170.097 1053.81 218 1112.77 218C1171.75 218 1219.55 170.097 1219.55 111.001C1219.55 51.9102 1171.75 4.00511 1112.77 4.00511L1112.77 4ZM1161.74 158.326C1161.28 159.074 1160.68 159.725 1159.98 160.241C1159.27 160.757 1158.47 161.128 1157.62 161.334C1156.77 161.539 1155.89 161.574 1155.02 161.437C1154.16 161.301 1153.33 160.994 1152.58 160.536C1127.51 145.19 1095.96 141.715 1058.79 150.225C1057.07 150.617 1055.26 150.308 1053.77 149.367C1052.27 148.425 1051.21 146.928 1050.82 145.203C1050.63 144.349 1050.6 143.465 1050.75 142.602C1050.89 141.738 1051.21 140.911 1051.67 140.17C1052.14 139.428 1052.74 138.785 1053.46 138.279C1054.17 137.772 1054.97 137.411 1055.83 137.217C1096.5 127.905 1131.39 131.915 1159.53 149.151C1162.67 151.081 1163.66 155.182 1161.74 158.326ZM1174.81 129.191C1172.4 133.116 1167.27 134.355 1163.36 131.94C1134.66 114.261 1090.91 109.142 1056.96 119.468C1052.56 120.801 1047.91 118.314 1046.57 113.91C1045.93 111.793 1046.16 109.508 1047.2 107.558C1048.24 105.607 1050.01 104.15 1052.12 103.505C1090.9 91.7144 1139.11 97.4259 1172.07 117.723C1175.98 120.138 1177.22 125.273 1174.81 129.191ZM1175.93 98.8519C1141.52 78.3684 1084.74 76.485 1051.89 86.4782C1046.61 88.0818 1041.03 85.097 1039.43 79.8097C1038.66 77.2695 1038.93 74.5272 1040.18 72.186C1041.43 69.8448 1043.55 68.0962 1046.09 67.3249C1083.8 55.8508 1146.5 58.0676 1186.12 81.6381C1187.25 82.3076 1188.24 83.1936 1189.02 84.2456C1189.81 85.2976 1190.38 86.4949 1190.71 87.7688C1191.03 89.0427 1191.1 90.3683 1190.92 91.6695C1190.73 92.9708 1190.29 94.2222 1189.62 95.3521C1186.81 100.108 1180.66 101.676 1175.93 98.8519H1175.93ZM1296.49 102.777C1278.06 98.3714 1274.78 95.2793 1274.78 88.782C1274.78 82.6437 1280.54 78.5128 1289.12 78.5128C1297.44 78.5128 1305.67 81.6496 1314.32 88.1073C1314.57 88.3028 1314.91 88.3808 1315.22 88.3297C1315.38 88.3066 1315.54 88.251 1315.68 88.1661C1315.81 88.0813 1315.93 87.9692 1316.03 87.8365L1325.03 75.1204C1325.21 74.8682 1325.28 74.5577 1325.24 74.252C1325.2 73.9463 1325.04 73.6683 1324.8 73.4746C1314.51 65.2038 1302.93 61.1828 1289.39 61.1828C1269.49 61.1828 1255.58 73.1539 1255.58 90.2821C1255.58 108.65 1267.58 115.153 1288.31 120.174C1305.94 124.246 1308.93 127.657 1308.93 133.755C1308.93 140.514 1302.91 144.718 1293.22 144.718C1282.46 144.718 1273.67 141.076 1263.85 132.566C1263.61 132.359 1263.29 132.254 1262.97 132.272C1262.64 132.298 1262.35 132.451 1262.15 132.694L1252.05 144.73C1251.63 145.242 1251.68 145.983 1252.16 146.417C1263.59 156.639 1277.64 162.031 1292.81 162.031C1314.26 162.031 1328.11 150.289 1328.11 132.106C1328.15 116.765 1318.99 108.268 1296.53 102.794L1296.49 102.777ZM1376.64 84.5565C1367.35 84.5565 1359.72 88.2262 1353.42 95.7457V87.2819C1353.43 86.9619 1353.3 86.6544 1353.07 86.4271C1352.85 86.1997 1352.54 86.071 1352.23 86.0694H1335.71C1335.05 86.0694 1334.52 86.6137 1334.52 87.2819V181.325C1334.52 181.989 1335.05 182.539 1335.71 182.539H1352.23C1352.89 182.539 1353.42 181.989 1353.42 181.325V151.643C1359.72 158.709 1367.35 162.172 1376.64 162.172C1393.92 162.172 1411.41 148.845 1411.41 123.368C1411.44 97.8859 1393.94 84.5552 1376.65 84.5552L1376.64 84.5565ZM1392.21 123.368C1392.21 136.336 1384.24 145.395 1372.82 145.395C1361.53 145.395 1353.02 135.927 1353.02 123.368C1353.02 110.808 1361.53 101.342 1372.82 101.342C1384.05 101.341 1392.21 110.603 1392.21 123.368ZM1456.23 84.5565C1433.98 84.5565 1416.55 101.724 1416.55 123.645C1416.55 145.331 1433.86 162.312 1455.96 162.312C1478.29 162.312 1495.77 145.203 1495.77 123.368C1495.77 101.607 1478.4 84.5591 1456.23 84.5591V84.5565ZM1456.23 145.523C1444.4 145.523 1435.47 135.991 1435.47 123.362C1435.47 110.675 1444.09 101.469 1455.96 101.469C1467.87 101.469 1476.84 110.997 1476.84 123.639C1476.84 136.323 1468.17 145.523 1456.23 145.523ZM1543.27 86.0694H1525.1V67.4578C1525.1 67.2994 1525.07 67.1424 1525.01 66.9958C1524.95 66.8492 1524.87 66.7158 1524.75 66.6034C1524.64 66.4909 1524.51 66.4015 1524.37 66.3402C1524.22 66.279 1524.06 66.2471 1523.91 66.2465H1507.39C1506.73 66.2465 1506.18 66.7908 1506.18 67.4578V86.0694H1498.25C1497.59 86.0694 1497.05 86.6137 1497.05 87.2819V101.499C1497.05 102.166 1497.59 102.712 1498.25 102.712H1506.18V139.505C1506.18 154.365 1513.56 161.903 1528.14 161.903C1534.05 161.903 1538.96 160.677 1543.59 158.045C1543.97 157.84 1544.2 157.431 1544.2 156.997V143.453C1544.2 143.044 1543.99 142.648 1543.63 142.431C1543.46 142.319 1543.26 142.256 1543.05 142.247C1542.84 142.238 1542.64 142.284 1542.46 142.379C1539.28 143.977 1536.21 144.718 1532.77 144.718C1527.48 144.718 1525.1 142.303 1525.1 136.911V102.718H1543.27C1543.94 102.718 1544.47 102.174 1544.47 101.506V87.2896C1544.48 87.131 1544.45 86.9729 1544.39 86.8249C1544.33 86.677 1544.25 86.5423 1544.14 86.4289C1544.03 86.3155 1543.89 86.2259 1543.75 86.1654C1543.6 86.1049 1543.44 86.0748 1543.29 86.077L1543.27 86.0694ZM1606.56 86.1422V83.8563C1606.56 77.1315 1609.14 74.1327 1614.9 74.1327C1618.35 74.1327 1621.11 74.8176 1624.21 75.8525C1624.59 75.9726 1624.99 75.9126 1625.29 75.6839C1625.45 75.5716 1625.58 75.4237 1625.66 75.2525C1625.75 75.0813 1625.79 74.8919 1625.79 74.7V60.7598C1625.79 60.4995 1625.71 60.2452 1625.56 60.0357C1625.4 59.8261 1625.19 59.6726 1624.94 59.5984C1621.67 58.6235 1617.49 57.623 1611.22 57.623C1595.98 57.623 1587.91 66.2273 1587.91 82.4968V85.9978H1579.98C1579.32 85.9978 1578.77 86.5421 1578.77 87.2091V101.499C1578.77 102.166 1579.32 102.712 1579.98 102.712H1587.91V159.45C1587.91 160.127 1588.46 160.664 1589.12 160.664H1605.62C1606.3 160.664 1606.83 160.127 1606.83 159.45V102.716H1622.25L1645.86 159.45C1643.18 165.404 1640.54 166.593 1636.95 166.593C1634.04 166.593 1630.97 165.724 1627.84 163.999C1627.55 163.849 1627.21 163.817 1626.89 163.909C1626.57 164.024 1626.3 164.254 1626.17 164.561L1620.58 176.866C1620.31 177.453 1620.54 178.131 1621.1 178.437C1626.94 181.606 1632.2 182.961 1638.72 182.961C1650.91 182.961 1657.65 177.262 1663.58 161.954L1692.22 87.7981C1692.29 87.6148 1692.32 87.4157 1692.3 87.219C1692.28 87.0223 1692.21 86.8344 1692.09 86.6724C1691.98 86.5104 1691.84 86.3775 1691.67 86.2857C1691.5 86.1938 1691.3 86.1458 1691.11 86.146H1673.92C1673.4 86.146 1672.94 86.4744 1672.78 86.9587L1655.17 137.345L1635.89 86.9254C1635.8 86.6969 1635.65 86.5001 1635.45 86.3609C1635.25 86.2217 1635.01 86.1468 1634.77 86.146H1606.56V86.1422ZM1569.87 86.0694H1553.36C1552.69 86.0694 1552.15 86.6137 1552.15 87.2819V159.45C1552.15 160.127 1552.69 160.664 1553.36 160.664H1569.87C1570.53 160.664 1571.08 160.127 1571.08 159.45V87.287C1571.08 87.1276 1571.05 86.9697 1570.99 86.8223C1570.93 86.675 1570.84 86.5411 1570.73 86.4284C1570.61 86.3157 1570.48 86.2264 1570.33 86.1657C1570.19 86.105 1570.03 86.074 1569.87 86.0745V86.0694ZM1561.71 53.2071C1555.17 53.2071 1549.86 58.5123 1549.86 65.0658C1549.86 66.6246 1550.17 68.1681 1550.77 69.6082C1551.36 71.0483 1552.23 72.3567 1553.33 73.4589C1554.43 74.561 1555.74 75.4353 1557.18 76.0317C1558.61 76.6281 1560.15 76.9349 1561.71 76.9348C1568.25 76.9348 1573.54 71.6232 1573.54 65.0658C1573.54 58.5136 1568.24 53.2071 1561.71 53.2071ZM1706.32 109.274C1699.79 109.274 1694.71 104.017 1694.71 97.6316C1694.71 91.2468 1699.86 85.9288 1706.38 85.9288C1712.91 85.9288 1718 91.1854 1718 97.5652C1718 103.95 1712.85 109.274 1706.32 109.274ZM1706.38 87.0864C1700.43 87.0864 1695.93 91.8269 1695.93 97.6316C1695.93 103.434 1700.4 108.11 1706.32 108.11C1712.28 108.11 1716.78 103.374 1716.78 97.5652C1716.78 91.763 1712.3 87.0864 1706.38 87.0864ZM1708.96 98.7624L1712.25 103.373H1709.47L1706.51 99.1432H1703.97V103.373H1701.65V91.1522H1707.09C1709.93 91.1522 1711.79 92.605 1711.79 95.0506C1711.8 97.0541 1710.64 98.2782 1708.97 98.7624H1708.96ZM1707 93.249H1703.97V97.1141H1707C1708.5 97.1141 1709.41 96.3743 1709.41 95.1796C1709.41 93.9223 1708.5 93.249 1707 93.249Z" fill="#EEEEF0"/>
<path d="M1112.5 3.46875C1053.16 3.46875 1005 51.641 1005 111C1005 170.359 1053.16 218.531 1112.5 218.531C1171.84 218.531 1220 170.359 1220 111C1220 51.641 1171.84 3.46875 1112.5 3.46875Z" fill="#1ED760"/>
<path d="M1112.5 3.46875C1053.16 3.46875 1005 51.641 1005 111C1005 170.359 1053.16 218.531 1112.5 218.531C1171.84 218.531 1220 170.359 1220 111C1220 51.641 1171.84 3.46875 1112.5 3.46875Z" fill="#1ED760"/>
<path d="M1181.25 100.204C1178.99 100.204 1177.61 99.6399 1175.66 98.5125C1144.79 80.0848 1089.61 75.6621 1053.9 85.6348C1052.33 86.0684 1050.38 86.7621 1048.3 86.7621C1042.58 86.7621 1038.2 82.2961 1038.2 76.5293C1038.2 70.6324 1041.84 67.2938 1045.75 66.1664C1061 61.7004 1078.08 59.5758 1096.68 59.5758C1128.32 59.5758 1161.48 66.1664 1185.71 80.3016C1189.09 82.2528 1191.3 84.941 1191.3 90.1008C1191.3 95.9977 1186.54 100.204 1181.25 100.204ZM1167.81 133.243C1165.56 133.243 1164.04 132.246 1162.48 131.422C1135.39 115.379 1094.99 108.919 1059.05 118.675C1056.97 119.238 1055.85 119.802 1053.9 119.802C1049.26 119.802 1045.49 116.03 1045.49 111.39C1045.49 106.751 1047.74 103.672 1052.2 102.415C1064.26 99.0328 1076.57 96.518 1094.6 96.518C1122.73 96.518 1149.91 103.499 1171.32 116.247C1174.83 118.328 1176.22 121.016 1176.22 124.788C1176.18 129.471 1172.54 133.243 1167.81 133.243ZM1156.15 161.687C1154.33 161.687 1153.2 161.123 1151.51 160.126C1124.46 143.823 1092.99 143.129 1061.91 149.503C1060.22 149.937 1058.01 150.63 1056.76 150.63C1052.55 150.63 1049.91 147.292 1049.91 143.78C1049.91 139.314 1052.55 137.189 1055.8 136.495C1091.3 128.647 1127.58 129.341 1158.53 147.855C1161.18 149.547 1162.74 151.064 1162.74 155.01C1162.74 158.955 1159.66 161.687 1156.15 161.687Z" fill="black"/>
</svg>
